
<svg xmlns="http://www.w3.org/2000/svg" version="1.1" viewBox="0 0 240 240">
<path fill="#e42529" d="
  M 111.02 9.99
  Q 133.99 31.01 126.50 62.00
  Q 124.36 70.86 115.69 103.83
  C 115.61 104.13 115.38 104.37 115.09 104.48
  Q 85.85 114.76 74.32 143.58
  Q 74.26 143.72 74.25 143.94
  Q 74.24 144.39 73.94 144.17
  C 73.82 144.08 73.76 143.92 73.78 143.75
  L 93.80 0.67
  C 93.84 0.34 94.17 0.14 94.48 0.24
  Q 103.79 3.38 111.02 9.99
  Z"
/>
<path fill="#1767af" d="
  M 82.76 22.67
  C 83.10 22.85 83.29 23.22 83.24 23.60
  Q 76.51 71.04 70.05 118.63
  Q 70.01 118.94 70.07 119.36
  Q 70.16 119.98 69.92 120.07
  C 69.72 120.15 69.49 119.90 69.48 119.58
  L 65.82 17.93
  C 65.80 17.41 66.27 17.01 66.78 17.11
  Q 75.29 18.77 82.76 22.67
  Z"
/>
<path fill="#119b49" d="
  M 56.89 41.31
  Q 59.78 41.88 59.64 44.88
  Q 59.54 47.07 59.54 47.12
  Q 61.33 97.06 63.18 147.00
  C 63.19 147.14 63.11 147.26 63.01 147.25
  L 62.91 147.24
  C 62.86 147.23 62.81 147.16 62.79 147.08
  L 40.09 40.12
  C 39.97 39.53 40.42 38.98 41.02 38.99
  Q 48.34 39.08 54.76 40.88
  Q 54.91 40.92 56.89 41.31
  Z"
/>
<path fill="#efb31b" d="
  M 138.19 240.00
  Q 135.19 240.00 132.19 240.00
  Q 105.85 237.75 88.52 219.83
  Q 81.53 212.60 77.04 203.55
  Q 67.14 183.58 71.51 161.47
  Q 73.49 151.42 78.37 142.80
  Q 88.89 124.21 109.18 114.93
  Q 118.05 110.88 127.76 109.83
  Q 152.94 107.12 173.28 121.73
  Q 190.37 134.00 197.03 153.96
  C 197.12 154.22 196.96 154.49 196.70 154.55
  L 166.06 161.33
  C 165.77 161.39 165.48 161.25 165.34 160.99
  Q 161.12 152.49 153.71 147.47
  Q 146.58 142.63 137.48 141.84
  Q 121.94 140.49 110.94 152.69
  Q 101.84 162.77 102.51 175.63
  Q 103.03 185.80 109.11 194.18
  Q 117.13 205.26 131.34 206.98
  Q 139.39 207.96 146.45 205.46
  Q 154.12 202.74 159.50 196.75
  Q 167.42 187.93 168.05 175.00
  C 168.08 174.42 168.49 173.94 169.05 173.82
  L 199.27 167.35
  C 199.54 167.29 199.80 167.47 199.86 167.74
  Q 201.13 173.85 200.00 182.00
  Q 195.42 214.98 167.69 231.19
  Q 154.93 238.65 138.19 240.00
  Z"
/>
</svg>
